name ./resultDataOpenSim/trcMotMarkerGrf/sub06/grf-14-05.mot
datacolumns 19
datarows 27
range 0.54000000 0.64400000
endheader

                time	     ground_force_vx	     ground_force_vy	     ground_force_vz	     ground_force_px	     ground_force_py	     ground_force_pz	   l_ground_force_vx	   l_ground_force_vy	   l_ground_force_vz	   l_ground_force_px	   l_ground_force_py	   l_ground_force_pz	     ground_torque_x	     ground_torque_y	     ground_torque_z	   l_ground_torque_x	   l_ground_torque_y	   l_ground_torque_z	
          0.54000000	        112.56086353	        744.60568188	        -54.16767558	         -0.81048142	          0.00000000	          0.11716120	          0.00000000	          0.00000000	          0.00000000	          0.00000000	          0.00000000	          0.00000000	          0.00000000	          0.11245790	          0.00000000	          0.00000000	          0.00000000	          0.00000000	
          0.54400000	        117.57978456	        755.72578902	        -53.88420362	         -0.80853457	          0.00000000	          0.11696899	          0.00000000	          0.00000000	          0.00000000	          0.00000000	          0.00000000	          0.00000000	          0.00000000	          0.08822392	          0.00000000	          0.00000000	          0.00000000	          0.00000000	
          0.54800000	        123.23357062	        766.51773364	        -53.58620342	         -0.80687686	          0.00000000	          0.11671849	          0.00000000	          0.00000000	          0.00000000	          0.00000000	          0.00000000	          0.00000000	          0.00000000	          0.05861068	          0.00000000	          0.00000000	          0.00000000	          0.00000000	
          0.55200000	        129.41055939	        776.67415215	        -53.32501833	         -0.80542637	          0.00000000	          0.11646073	          0.00000000	          0.00000000	          0.00000000	          0.00000000	          0.00000000	          0.00000000	          0.00000000	          0.02125257	          0.00000000	          0.00000000	          0.00000000	          0.00000000	
          0.55600000	        135.98942925	        785.86869911	        -53.12598774	         -0.80410449	          0.00000000	          0.11624045	          0.00000000	          0.00000000	          0.00000000	          0.00000000	          0.00000000	          0.00000000	          0.00000000	         -0.02487023	          0.00000000	          0.00000000	          0.00000000	          0.00000000	
          0.56000000	        142.88692074	        793.98256784	        -53.00545622	         -0.80290062	          0.00000000	          0.11605252	          0.00000000	          0.00000000	          0.00000000	          0.00000000	          0.00000000	          0.00000000	          0.00000000	         -0.07910351	          0.00000000	          0.00000000	          0.00000000	          0.00000000	
          0.56400000	        150.05210969	        801.08100013	        -52.95828166	         -0.80185143	          0.00000000	          0.11584960	          0.00000000	          0.00000000	          0.00000000	          0.00000000	          0.00000000	          0.00000000	          0.00000000	         -0.13924665	          0.00000000	          0.00000000	          0.00000000	          0.00000000	
          0.56800000	        157.43218598	        807.17779222	        -52.93082839	         -0.80096725	          0.00000000	          0.11559669	          0.00000000	          0.00000000	          0.00000000	          0.00000000	          0.00000000	          0.00000000	          0.00000000	         -0.20197405	          0.00000000	          0.00000000	          0.00000000	          0.00000000	
          0.57200000	        164.94685492	        812.08083941	        -52.82582210	         -0.80019340	          0.00000000	          0.11530285	          0.00000000	          0.00000000	          0.00000000	          0.00000000	          0.00000000	          0.00000000	          0.00000000	         -0.26322211	          0.00000000	          0.00000000	          0.00000000	          0.00000000	
          0.57600000	        172.49323643	        815.47879260	        -52.53909436	         -0.79943909	          0.00000000	          0.11499663	          0.00000000	          0.00000000	          0.00000000	          0.00000000	          0.00000000	          0.00000000	          0.00000000	         -0.31839408	          0.00000000	          0.00000000	          0.00000000	          0.00000000	
          0.58000000	        179.97236977	        817.12150011	        -51.99264601	         -0.79864569	          0.00000000	          0.11468618	          0.00000000	          0.00000000	          0.00000000	          0.00000000	          0.00000000	          0.00000000	          0.00000000	         -0.36257009	          0.00000000	          0.00000000	          0.00000000	          0.00000000	
          0.58400000	        187.30703511	        816.88125991	        -51.13864264	         -0.79781790	          0.00000000	          0.11435283	          0.00000000	          0.00000000	          0.00000000	          0.00000000	          0.00000000	          0.00000000	          0.00000000	         -0.39102587	          0.00000000	          0.00000000	          0.00000000	          0.00000000	
          0.58800000	        194.43013409	        814.66746798	        -49.95125986	         -0.79699523	          0.00000000	          0.11397438	          0.00000000	          0.00000000	          0.00000000	          0.00000000	          0.00000000	          0.00000000	          0.00000000	         -0.40015630	          0.00000000	          0.00000000	          0.00000000	          0.00000000	
          0.59200000	        201.25599663	        810.33377612	        -48.43622116	         -0.79619018	          0.00000000	          0.11354946	          0.00000000	          0.00000000	          0.00000000	          0.00000000	          0.00000000	          0.00000000	          0.00000000	         -0.38856873	          0.00000000	          0.00000000	          0.00000000	          0.00000000	
          0.59600000	        207.67056482	        803.70693736	        -46.63891105	         -0.79536646	          0.00000000	          0.11309515	          0.00000000	          0.00000000	          0.00000000	          0.00000000	          0.00000000	          0.00000000	          0.00000000	         -0.35794539	          0.00000000	          0.00000000	          0.00000000	          0.00000000	
          0.60000000	        213.55657830	        794.71238117	        -44.62550702	         -0.79449301	          0.00000000	          0.11261959	          0.00000000	          0.00000000	          0.00000000	          0.00000000	          0.00000000	          0.00000000	          0.00000000	         -0.31341636	          0.00000000	          0.00000000	          0.00000000	          0.00000000	
          0.60400000	        218.82682614	        783.44167338	        -42.46109354	         -0.79358942	          0.00000000	          0.11211099	          0.00000000	          0.00000000	          0.00000000	          0.00000000	          0.00000000	          0.00000000	          0.00000000	         -0.26343037	          0.00000000	          0.00000000	          0.00000000	          0.00000000	
          0.60800000	        223.43818544	        770.05105146	        -40.21025469	         -0.79271180	          0.00000000	          0.11156359	          0.00000000	          0.00000000	          0.00000000	          0.00000000	          0.00000000	          0.00000000	          0.00000000	         -0.21913571	          0.00000000	          0.00000000	          0.00000000	          0.00000000	
          0.61200000	        227.40092988	        754.56862372	        -37.94698704	         -0.79188754	          0.00000000	          0.11099968	          0.00000000	          0.00000000	          0.00000000	          0.00000000	          0.00000000	          0.00000000	          0.00000000	         -0.19312108	          0.00000000	          0.00000000	          0.00000000	          0.00000000	
          0.61600000	        230.77539470	        736.84418671	        -35.74902593	         -0.79109197	          0.00000000	          0.11048028	          0.00000000	          0.00000000	          0.00000000	          0.00000000	          0.00000000	          0.00000000	          0.00000000	         -0.19742065	          0.00000000	          0.00000000	          0.00000000	          0.00000000	
          0.62000000	        233.62627769	        716.75732745	        -33.66965170	         -0.79028329	          0.00000000	          0.11004997	          0.00000000	          0.00000000	          0.00000000	          0.00000000	          0.00000000	          0.00000000	          0.00000000	         -0.24119019	          0.00000000	          0.00000000	          0.00000000	          0.00000000	
          0.62400000	        235.98209449	        694.41871137	        -31.70850207	         -0.78949845	          0.00000000	          0.10967116	          0.00000000	          0.00000000	          0.00000000	          0.00000000	          0.00000000	          0.00000000	          0.00000000	         -0.32896341	          0.00000000	          0.00000000	          0.00000000	          0.00000000	
          0.62800000	        237.83352010	        670.01137607	        -29.81216417	         -0.78887791	          0.00000000	          0.10925953	          0.00000000	          0.00000000	          0.00000000	          0.00000000	          0.00000000	          0.00000000	          0.00000000	         -0.46008589	          0.00000000	          0.00000000	          0.00000000	          0.00000000	
          0.63200000	        239.09064221	        643.40672470	        -27.89425496	         -0.78853788	          0.00000000	          0.10878637	          0.00000000	          0.00000000	          0.00000000	          0.00000000	          0.00000000	          0.00000000	          0.00000000	         -0.62888777	          0.00000000	          0.00000000	          0.00000000	          0.00000000	
          0.63600000	        239.47764611	        614.05886820	        -25.84103099	         -0.78841378	          0.00000000	          0.10831660	          0.00000000	          0.00000000	          0.00000000	          0.00000000	          0.00000000	          0.00000000	          0.00000000	         -0.82465843	          0.00000000	          0.00000000	          0.00000000	          0.00000000	
          0.64000000	        238.49990336	        581.35813487	        -23.51315997	         -0.78830841	          0.00000000	          0.10793068	          0.00000000	          0.00000000	          0.00000000	          0.00000000	          0.00000000	          0.00000000	          0.00000000	         -1.03122705	          0.00000000	          0.00000000	          0.00000000	          0.00000000	
          0.64400000	        235.56030983	        545.08030189	        -20.77332937	         -0.78809782	          0.00000000	          0.10763335	          0.00000000	          0.00000000	          0.00000000	          0.00000000	          0.00000000	          0.00000000	          0.00000000	         -1.22699661	          0.00000000	          0.00000000	          0.00000000	          0.00000000	
